<svg width="12" height="12" viewBox="0 0 12 12" fill="none" xmlns="http://www.w3.org/2000/svg">
<path d="M9.98249 4.2605C9.99399 4.1735 9.99999 4.0865 9.99999 4C9.99999 2.8105 8.92849 1.856 7.73949 2.0175C7.39299 1.401 6.73299 1 5.99999 1C5.26699 1 4.60699 1.401 4.26049 2.0175C3.06899 1.856 1.99999 2.8105 1.99999 4C1.99999 4.0865 2.00599 4.1735 2.01749 4.2605C1.40099 4.6075 0.999989 5.2675 0.999989 6C0.999989 6.7325 1.40099 7.3925 2.01749 7.7395C2.00599 7.8265 1.99999 7.9135 1.99999 8C1.99999 9.1895 3.06899 10.1415 4.26049 9.9825C4.60699 10.599 5.26699 11 5.99999 11C6.73299 11 7.39299 10.599 7.73949 9.9825C8.92849 10.1415 9.99999 9.1895 9.99999 8C9.99999 7.9135 9.99399 7.8265 9.98249 7.7395C10.599 7.3925 11 6.7325 11 6C11 5.2675 10.599 4.6075 9.98249 4.2605ZM5.47749 8.208L3.64399 6.351L4.35599 5.649L5.48449 6.792L7.64799 4.645L8.35199 5.355L5.47749 8.208Z" fill="black"/>
</svg>
