<svg width="12" height="12" viewBox="0 0 12 12" fill="none" xmlns="http://www.w3.org/2000/svg">
<path d="M1.99999 10.5H2.49999V4H1.99999C1.44799 4 0.999992 4.448 0.999992 5V9.5C0.999992 10.052 1.44799 10.5 1.99999 10.5ZM9.99999 4H6.49999L7.06099 2.316C7.27699 1.6685 6.79499 1 6.11249 1H5.99999L3.49999 3.719V10.5H8.99999L10.956 6.202C10.9685 6.1455 10.988 6.057 11 6V5C11 4.448 10.552 4 9.99999 4Z" fill="url(#paint0_linear)"/>
<path d="M1.99999 10.5H2.49999V4H1.99999C1.44799 4 0.999992 4.448 0.999992 5V9.5C0.999992 10.052 1.44799 10.5 1.99999 10.5ZM9.99999 4H6.49999L7.06099 2.316C7.27699 1.6685 6.79499 1 6.11249 1H5.99999L3.49999 3.719V10.5H8.99999L10.956 6.202C10.9685 6.1455 10.988 6.057 11 6V5C11 4.448 10.552 4 9.99999 4Z" fill="#4CA5E2"/>
<path d="M1.99999 10.5H2.49999V4H1.99999C1.44799 4 0.999992 4.448 0.999992 5V9.5C0.999992 10.052 1.44799 10.5 1.99999 10.5ZM9.99999 4H6.49999L7.06099 2.316C7.27699 1.6685 6.79499 1 6.11249 1H5.99999L3.49999 3.719V10.5H8.99999L10.956 6.202C10.9685 6.1455 10.988 6.057 11 6V5C11 4.448 10.552 4 9.99999 4Z" fill="#8B020B"/>
<path d="M1.99999 10.5H2.49999V4H1.99999C1.44799 4 0.999992 4.448 0.999992 5V9.5C0.999992 10.052 1.44799 10.5 1.99999 10.5ZM9.99999 4H6.49999L7.06099 2.316C7.27699 1.6685 6.79499 1 6.11249 1H5.99999L3.49999 3.719V10.5H8.99999L10.956 6.202C10.9685 6.1455 10.988 6.057 11 6V5C11 4.448 10.552 4 9.99999 4Z" fill="#C2141C"/>
<defs>
<linearGradient id="paint0_linear" x1="5.99999" y1="1" x2="5.99999" y2="10.5" gradientUnits="userSpaceOnUse">
<stop stop-color="#FFB9BD"/>
<stop offset="1" stop-color="#FF9E80"/>
</linearGradient>
</defs>
</svg>
