<svg width="32" height="33" viewBox="0 0 32 33" fill="none" xmlns="http://www.w3.org/2000/svg">
<path d="M28 15.1667H24V5.83333C24 5.096 23.404 4.5 22.6666 4.5H3.99996C3.26263 4.5 2.66663 5.096 2.66663 5.83333V24.5C2.66663 26.7053 4.46129 28.5 6.66663 28.5H25.3333C27.5386 28.5 29.3333 26.7053 29.3333 24.5V16.5C29.3333 15.7627 28.7373 15.1667 28 15.1667ZM6.66663 25.8333C5.93063 25.8333 5.33329 25.236 5.33329 24.5V7.16667H21.3333V24.5C21.3333 24.968 21.4146 25.4173 21.5613 25.8333H6.66663ZM26.6666 24.5C26.6666 25.236 26.0693 25.8333 25.3333 25.8333C24.5973 25.8333 24 25.236 24 24.5V17.8333H26.6666V24.5Z" fill="white"/>
<path d="M8 9.83337H18.6667V12.5H8V9.83337ZM8 15.1667H18.6667V17.8334H8V15.1667ZM14.6667 20.5H18.6667V23.1667H14.6667V20.5Z" fill="white"/>
</svg>
