<svg width="12" height="12" viewBox="0 0 12 12" fill="none" xmlns="http://www.w3.org/2000/svg">
<path d="M4.75 6C5.853 6 6.75 5.103 6.75 4C6.75 2.897 5.853 2 4.75 2C3.647 2 2.75 2.897 2.75 4C2.75 5.103 3.647 6 4.75 6ZM5.5 6.5H4C2.3455 6.5 1 7.8455 1 9.5V10H1.5H2H7.5H8H8.5V9.5C8.5 7.8455 7.1545 6.5 5.5 6.5Z" fill="white"/>
<path d="M8.30204 5.52398C8.60404 5.00948 8.73804 4.40998 8.67754 3.80398C8.58804 2.91198 8.09004 2.12348 7.27604 1.58398L6.72354 2.41698C7.28304 2.78798 7.62354 3.31648 7.68254 3.90398C7.73754 4.45648 7.54254 5.00098 7.14654 5.39698L6.55054 5.99298L7.35954 6.23048C9.47554 6.85049 9.50004 8.97849 9.50004 8.99999H10.5C10.5 8.10548 10.022 6.35748 8.30204 5.52398Z" fill="white"/>
</svg>
