<svg width="13" height="17" viewBox="0 0 13 17" fill="none" xmlns="http://www.w3.org/2000/svg">
<path d="M11.9044 16.7352H12.6765V15.0882H11.9044V14.2646C11.9044 12.2355 10.8891 10.3356 9.25392 9.307C8.97984 9.13406 8.81616 8.85653 8.81616 8.565V8.43488C8.81616 8.14335 8.97984 7.86583 9.25315 7.69371C10.8891 6.6643 11.9044 4.76441 11.9044 2.73524V1.91171H12.6765V0.264648H11.9044H1.09558H0.323517V1.91171H1.09558V2.73524C1.09558 4.76441 2.11083 6.6643 3.74683 7.69371C4.02013 7.86583 4.18381 8.14253 4.18381 8.43488V8.565C4.18381 8.85653 4.02013 9.13406 3.74683 9.30618C2.11083 10.3356 1.09558 12.2355 1.09558 14.2646V15.0882H0.323517V16.7352H1.09558H11.9044ZM10.3603 1.91171V2.73524C10.3603 3.63783 10.0793 4.50335 9.58513 5.20583H3.41484C2.92072 4.50335 2.63969 3.63783 2.63969 2.73524V1.91171H10.3603ZM4.53124 10.7251C5.28091 10.2524 5.72793 9.44536 5.72793 8.565V8.49994H7.27205V8.565C7.27205 9.44453 7.71907 10.2524 8.46951 10.7251C9.17286 11.1682 9.71098 11.8385 10.0306 12.6176H2.96936C3.28899 11.8385 3.82789 11.1674 4.53124 10.7251Z" fill="white"/>
</svg>
